<svg width="435" height="439" viewBox="0 0 435 439" fill="none" xmlns="http://www.w3.org/2000/svg">
    <g filter="url(#filter0_d_0_1)">
        <rect x="79" y="81" width="272" height="272" rx="22.8621" fill="white"/>
    </g>
    <rect x="168.06" y="166" width="85.68" height="102" rx="20.4" fill="#7B61FF"/>
    <line x1="182.976" y1="188.95" x2="236.174" y2="188.95" stroke="white" stroke-width="5.1" stroke-linecap="round"/>
    <line x1="182.976" y1="216.49" x2="236.174" y2="216.49" stroke="white" stroke-width="5.1" stroke-linecap="round"/>
    <line x1="182.976" y1="244.03" x2="236.174" y2="244.03" stroke="white" stroke-width="5.1" stroke-linecap="round"/>
    <path d="M283.381 220.5C280.674 227.767 275.814 230.02 262.165 231.308C259.904 199.11 271.862 192.894 307.8 194.88C305.886 203.722 298.65 207.868 276.976 214.095M271.772 223.368C288.897 219.871 295.09 215.977 296.727 207.611" stroke="#7B61FF" stroke-width="3.20246" stroke-linecap="round"/>
    <mask id="mask0_0_1" style="mask-type:alpha" maskUnits="userSpaceOnUse" x="112" y="192" width="50" height="42">
        <path d="M138.419 220.514C141.126 227.781 145.986 230.034 159.635 231.322C161.896 199.124 149.938 192.909 114 194.894C115.914 203.736 123.15 207.882 144.824 214.109M150.028 223.382C132.903 219.885 126.71 215.991 125.073 207.625" stroke="#111111" stroke-width="3.2028" stroke-linecap="round"/>
    </mask>
    <g mask="url(#mask0_0_1)">
        <rect x="109.92" y="187.42" width="55.08" height="51" fill="#7B61FF"/>
    </g>
    <defs>
        <filter id="filter0_d_0_1" x="-4.24138" y="0.103449" width="438.483" height="438.483" filterUnits="userSpaceOnUse" color-interpolation-filters="sRGB">
            <feFlood flood-opacity="0" result="BackgroundImageFix"/>
            <feColorMatrix in="SourceAlpha" type="matrix" values="0 0 0 0 0 0 0 0 0 0 0 0 0 0 0 0 0 0 127 0" result="hardAlpha"/>
            <feOffset dy="2.34483"/>
            <feGaussianBlur stdDeviation="41.6207"/>
            <feColorMatrix type="matrix" values="0 0 0 0 0.0714583 0 0 0 0 0.208115 0 0 0 0 0.408333 0 0 0 0.1 0"/>
            <feBlend mode="normal" in2="BackgroundImageFix" result="effect1_dropShadow_0_1"/>
            <feBlend mode="normal" in="SourceGraphic" in2="effect1_dropShadow_0_1" result="shape"/>
        </filter>
    </defs>
</svg>
